<svg width="40" height="40" viewBox="0 0 40 40" fill="none" xmlns="http://www.w3.org/2000/svg">
<g clip-path="url(#clip0_1_65)">
<path d="M6.25 17.5195V38.125H21.3031V28.221C21.3031 25.9198 23.1686 24.0543 25.4697 24.0543C27.7709 24.0543 29.6365 25.9198 29.6365 28.221V38.125H33.75V17.5195H6.25ZM16.9423 25.9375H11.9423C11.2519 25.9375 10.6923 25.3778 10.6923 24.6875C10.6923 23.9971 11.2519 23.4375 11.9423 23.4375H16.9423C17.6327 23.4375 18.1923 23.9971 18.1923 24.6875C18.1923 25.3778 17.6327 25.9375 16.9423 25.9375Z" fill="#00BBB4"/>
<path d="M38.75 39.375H1.25C0.559692 39.375 0 38.8153 0 38.125C0 37.4347 0.559692 36.875 1.25 36.875H38.75C39.4403 36.875 40 37.4347 40 38.125C40 38.8153 39.4403 39.375 38.75 39.375Z" fill="#1B75BC"/>
<path d="M6.5308 15.6641C2.76853 15.6641 0.215569 11.8385 1.65939 8.36427L4.87571 0.625H13.209L11.7562 11.1126C11.3948 13.7215 9.16457 15.6641 6.5308 15.6641Z" fill="#F15A29"/>
<path d="M20.1935 15.6641H19.8065C16.6052 15.6641 14.1418 12.8359 14.5811 9.66488L15.8333 0.625H24.1667L25.4189 9.66488C25.8582 12.8359 23.3948 15.6641 20.1935 15.6641Z" fill="#F15A29"/>
<path d="M33.4692 15.6641C30.8354 15.6641 28.6052 13.7215 28.2438 11.1126L26.791 0.625H35.1243L38.3406 8.36427C39.7844 11.8385 37.2315 15.6641 33.4692 15.6641Z" fill="#F15A29"/>
</g>
<defs>
<clipPath id="clip0_1_65">
<rect width="40" height="40" fill="white"/>
</clipPath>
</defs>
</svg>
